<svg id="visual" viewBox="0 0 900 600" width="900" height="600" xmlns="http://www.w3.org/2000/svg" xmlns:xlink="http://www.w3.org/1999/xlink" version="1.1"><rect x="0" y="0" width="900" height="600" fill="#FFFFFF"></rect><defs><linearGradient id="grad1_0" x1="33.3%" y1="100%" x2="100%" y2="0%"><stop offset="20%" stop-color="#009473" stop-opacity="1"></stop><stop offset="80%" stop-color="#009473" stop-opacity="1"></stop></linearGradient></defs><defs><linearGradient id="grad1_1" x1="33.3%" y1="100%" x2="100%" y2="0%"><stop offset="20%" stop-color="#009473" stop-opacity="1"></stop><stop offset="80%" stop-color="#96cab7" stop-opacity="1"></stop></linearGradient></defs><defs><linearGradient id="grad1_2" x1="33.3%" y1="100%" x2="100%" y2="0%"><stop offset="20%" stop-color="#ffffff" stop-opacity="1"></stop><stop offset="80%" stop-color="#96cab7" stop-opacity="1"></stop></linearGradient></defs><defs><linearGradient id="grad2_0" x1="0%" y1="100%" x2="66.7%" y2="0%"><stop offset="20%" stop-color="#009473" stop-opacity="1"></stop><stop offset="80%" stop-color="#009473" stop-opacity="1"></stop></linearGradient></defs><defs><linearGradient id="grad2_1" x1="0%" y1="100%" x2="66.7%" y2="0%"><stop offset="20%" stop-color="#96cab7" stop-opacity="1"></stop><stop offset="80%" stop-color="#009473" stop-opacity="1"></stop></linearGradient></defs><defs><linearGradient id="grad2_2" x1="0%" y1="100%" x2="66.7%" y2="0%"><stop offset="20%" stop-color="#96cab7" stop-opacity="1"></stop><stop offset="80%" stop-color="#ffffff" stop-opacity="1"></stop></linearGradient></defs><g transform="translate(900, 600)"><path d="M-486.7 0C-472.8 -64.9 -458.9 -129.9 -425 -176C-391 -222.2 -337.1 -249.6 -297.7 -297.7C-258.3 -345.8 -233.5 -414.7 -186.3 -449.7C-139.1 -484.7 -69.5 -485.7 0 -486.7L0 0Z" fill="#cae4da"></path><path d="M-324.5 0C-315.2 -43.3 -305.9 -86.6 -283.3 -117.4C-260.7 -148.1 -224.7 -166.4 -198.5 -198.5C-172.2 -230.6 -155.6 -276.5 -124.2 -299.8C-92.7 -323.1 -46.4 -323.8 0 -324.5L0 0Z" fill="#5eaf94"></path><path d="M-162.2 0C-157.6 -21.6 -153 -43.3 -141.7 -58.7C-130.3 -74.1 -112.4 -83.2 -99.2 -99.2C-86.1 -115.3 -77.8 -138.2 -62.1 -149.9C-46.4 -161.6 -23.2 -161.9 0 -162.2L0 0Z" fill="#009473"></path></g><g transform="translate(0, 0)"><path d="M486.7 0C471.8 61.3 456.9 122.7 433.3 179.5C409.7 236.3 377.4 288.6 335.9 335.9C294.4 383.1 243.8 425.4 186.3 449.7C128.8 474 64.4 480.4 0 486.7L0 0Z" fill="#cae4da"></path><path d="M324.5 0C314.6 40.9 304.6 81.8 288.9 119.7C273.1 157.5 251.6 192.4 223.9 223.9C196.3 255.4 162.5 283.6 124.2 299.8C85.8 316 42.9 320.3 0 324.5L0 0Z" fill="#5eaf94"></path><path d="M162.2 0C157.3 20.4 152.3 40.9 144.4 59.8C136.6 78.8 125.8 96.2 112 112C98.1 127.7 81.3 141.8 62.1 149.9C42.9 158 21.5 160.1 0 162.2L0 0Z" fill="#009473"></path></g></svg>