<svg id="visual" viewBox="0 0 900 600" width="900" height="600" xmlns="http://www.w3.org/2000/svg" xmlns:xlink="http://www.w3.org/1999/xlink" version="1.1"><rect width="900" height="600" fill="#FFFFFF"></rect><g><g transform="translate(564 294)"><path d="M0 -106.2L83 -66.2L103.5 23.6L46.1 95.7L-46.1 95.7L-103.5 23.6L-83 -66.2Z" fill="#00CC8E"></path></g><g transform="translate(802 328)"><path d="M0 -57L44.6 -35.5L55.6 12.7L24.7 51.4L-24.7 51.4L-55.6 12.7L-44.6 -35.5Z" fill="#00CC8E"></path></g><g transform="translate(9 342)"><path d="M0 -104L81.3 -64.8L101.4 23.1L45.1 93.7L-45.1 93.7L-101.4 23.1L-81.3 -64.8Z" fill="#00CC8E"></path></g><g transform="translate(469 89)"><path d="M0 -65L50.8 -40.5L63.4 14.5L28.2 58.6L-28.2 58.6L-63.4 14.5L-50.8 -40.5Z" fill="#00CC8E"></path></g></g></svg>