<svg id="visual" viewBox="0 0 900 600" width="900" height="600" xmlns="http://www.w3.org/2000/svg" xmlns:xlink="http://www.w3.org/1999/xlink" version="1.1"><path d="M0 175L13.7 169C27.3 163 54.7 151 82 146C109.3 141 136.7 143 163.8 155C191 167 218 189 245.2 193C272.3 197 299.7 183 327 186C354.3 189 381.7 209 409 210C436.3 211 463.7 193 491 183C518.3 173 545.7 171 573 180C600.3 189 627.7 209 654.8 220C682 231 709 233 736.2 213C763.3 193 790.7 151 818 138C845.3 125 872.7 141 886.3 149L900 157L900 0L886.3 0C872.7 0 845.3 0 818 0C790.7 0 763.3 0 736.2 0C709 0 682 0 654.8 0C627.7 0 600.3 0 573 0C545.7 0 518.3 0 491 0C463.7 0 436.3 0 409 0C381.7 0 354.3 0 327 0C299.7 0 272.3 0 245.2 0C218 0 191 0 163.8 0C136.7 0 109.3 0 82 0C54.7 0 27.3 0 13.7 0L0 0Z" fill="#425269"></path><path d="M0 259L13.7 248C27.3 237 54.7 215 82 207C109.3 199 136.7 205 163.8 234C191 263 218 315 245.2 325C272.3 335 299.7 303 327 291C354.3 279 381.7 287 409 293C436.3 299 463.7 303 491 295C518.3 287 545.7 267 573 263C600.3 259 627.7 271 654.8 291C682 311 709 339 736.2 330C763.3 321 790.7 275 818 261C845.3 247 872.7 265 886.3 274L900 283L900 155L886.3 147C872.7 139 845.3 123 818 136C790.7 149 763.3 191 736.2 211C709 231 682 229 654.8 218C627.7 207 600.3 187 573 178C545.7 169 518.3 171 491 181C463.7 191 436.3 209 409 208C381.7 207 354.3 187 327 184C299.7 181 272.3 195 245.2 191C218 187 191 165 163.8 153C136.7 141 109.3 139 82 144C54.7 149 27.3 161 13.7 167L0 173Z" fill="#717ea0"></path><path d="M0 301L13.7 296C27.3 291 54.7 281 82 282C109.3 283 136.7 295 163.8 324C191 353 218 399 245.2 404C272.3 409 299.7 373 327 370C354.3 367 381.7 397 409 404C436.3 411 463.7 395 491 387C518.3 379 545.7 379 573 378C600.3 377 627.7 375 654.8 387C682 399 709 425 736.2 408C763.3 391 790.7 331 818 319C845.3 307 872.7 343 886.3 361L900 379L900 281L886.3 272C872.7 263 845.3 245 818 259C790.7 273 763.3 319 736.2 328C709 337 682 309 654.8 289C627.7 269 600.3 257 573 261C545.7 265 518.3 285 491 293C463.7 301 436.3 297 409 291C381.7 285 354.3 277 327 289C299.7 301 272.3 333 245.2 323C218 313 191 261 163.8 232C136.7 203 109.3 197 82 205C54.7 213 27.3 235 13.7 246L0 257Z" fill="#9099c3"></path><path d="M0 403L13.7 395C27.3 387 54.7 371 82 366C109.3 361 136.7 367 163.8 395C191 423 218 473 245.2 476C272.3 479 299.7 435 327 425C354.3 415 381.7 439 409 451C436.3 463 463.7 463 491 455C518.3 447 545.7 431 573 432C600.3 433 627.7 451 654.8 465C682 479 709 489 736.2 464C763.3 439 790.7 379 818 376C845.3 373 872.7 427 886.3 454L900 481L900 377L886.3 359C872.7 341 845.3 305 818 317C790.7 329 763.3 389 736.2 406C709 423 682 397 654.8 385C627.7 373 600.3 375 573 376C545.7 377 518.3 377 491 385C463.7 393 436.3 409 409 402C381.7 395 354.3 365 327 368C299.7 371 272.3 407 245.2 402C218 397 191 351 163.8 322C136.7 293 109.3 281 82 280C54.7 279 27.3 289 13.7 294L0 299Z" fill="#717ea0"></path><path d="M0 601L13.7 601C27.3 601 54.7 601 82 601C109.3 601 136.7 601 163.8 601C191 601 218 601 245.2 601C272.3 601 299.7 601 327 601C354.3 601 381.7 601 409 601C436.3 601 463.7 601 491 601C518.3 601 545.7 601 573 601C600.3 601 627.7 601 654.8 601C682 601 709 601 736.2 601C763.3 601 790.7 601 818 601C845.3 601 872.7 601 886.3 601L900 601L900 479L886.3 452C872.7 425 845.3 371 818 374C790.7 377 763.3 437 736.2 462C709 487 682 477 654.8 463C627.7 449 600.3 431 573 430C545.7 429 518.3 445 491 453C463.7 461 436.3 461 409 449C381.7 437 354.3 413 327 423C299.7 433 272.3 477 245.2 474C218 471 191 421 163.8 393C136.7 365 109.3 359 82 364C54.7 369 27.3 385 13.7 393L0 401Z" fill="#425269"></path></svg>