<svg id="visual" viewBox="0 0 900 600" width="900" height="600" xmlns="http://www.w3.org/2000/svg" xmlns:xlink="http://www.w3.org/1999/xlink" version="1.1"><path d="M0 61L82 61L82 37L164 37L164 67L245 67L245 97L327 97L327 97L409 97L409 103L491 103L491 85L573 85L573 73L655 73L655 67L736 67L736 37L818 37L818 67L900 67L900 85L900 0L900 0L818 0L818 0L736 0L736 0L655 0L655 0L573 0L573 0L491 0L491 0L409 0L409 0L327 0L327 0L245 0L245 0L164 0L164 0L82 0L82 0L0 0Z" fill="#038373"></path><path d="M0 133L82 133L82 151L164 151L164 187L245 187L245 163L327 163L327 217L409 217L409 139L491 139L491 187L573 187L573 193L655 193L655 139L736 139L736 121L818 121L818 145L900 145L900 187L900 83L900 65L818 65L818 35L736 35L736 65L655 65L655 71L573 71L573 83L491 83L491 101L409 101L409 95L327 95L327 95L245 95L245 65L164 65L164 35L82 35L82 59L0 59Z" fill="#00b087"></path><path d="M0 355L82 355L82 307L164 307L164 361L245 361L245 319L327 319L327 325L409 325L409 307L491 307L491 427L573 427L573 337L655 337L655 313L736 313L736 247L818 247L818 295L900 295L900 373L900 185L900 143L818 143L818 119L736 119L736 137L655 137L655 191L573 191L573 185L491 185L491 137L409 137L409 215L327 215L327 161L245 161L245 185L164 185L164 149L82 149L82 131L0 131Z" fill="#00cc8e"></path><path d="M0 535L82 535L82 511L164 511L164 511L245 511L245 481L327 481L327 535L409 535L409 547L491 547L491 523L573 523L573 487L655 487L655 547L736 547L736 445L818 445L818 445L900 445L900 469L900 371L900 293L818 293L818 245L736 245L736 311L655 311L655 335L573 335L573 425L491 425L491 305L409 305L409 323L327 323L327 317L245 317L245 359L164 359L164 305L82 305L82 353L0 353Z" fill="#00b087"></path><path d="M0 601L82 601L82 601L164 601L164 601L245 601L245 601L327 601L327 601L409 601L409 601L491 601L491 601L573 601L573 601L655 601L655 601L736 601L736 601L818 601L818 601L900 601L900 601L900 467L900 443L818 443L818 443L736 443L736 545L655 545L655 485L573 485L573 521L491 521L491 545L409 545L409 533L327 533L327 479L245 479L245 509L164 509L164 509L82 509L82 533L0 533Z" fill="#038373"></path></svg>